<svg width="61" height="86" viewBox="0 0 61 86" fill="none" xmlns="http://www.w3.org/2000/svg">
<path d="M15.3288 47.1105C23.6373 44.3362 31.9051 45.4228 37.671 46.8562C41.8544 47.9023 46.0784 49.168 49.8487 51.3297C55.184 54.3698 59.5594 59.531 59.6001 65.9292C59.527 70.5384 57.6339 74.9347 54.3287 78.1706C51.0145 81.3764 46.7983 83.5068 42.2384 84.2797C34.8084 85.6379 26.9538 83.7364 20.6002 79.656C14.2466 75.5755 9.35929 69.5068 6.17669 62.6983C2.27845 54.3756 0.666785 44.9604 1.05661 35.8227C1.53371 24.3963 3.20937 9.65802 11.5819 1.00003" stroke="#2D2D2D" stroke-linecap="round" stroke-linejoin="round"/>
<path d="M10.373 6.45032C10.0705 4.491 10.9956 2.89002 11.5774 1.00006C10.0402 1.76732 8.55009 2.62421 7.11478 3.56624" stroke="#2D2D2D" stroke-linecap="round" stroke-linejoin="round"/>
</svg>
